<?xml version="1.0" encoding="UTF-8"?>
<svg id="Layer_1" data-name="Layer 1" xmlns="http://www.w3.org/2000/svg" viewBox="0 0 1033.41 280.98">
  <defs>
    <style>
      .cls-1, .cls-2, .cls-3, .cls-4 {
        fill: #124d5e;
      }

      .cls-5 {
        letter-spacing: .02em;
      }

      .cls-2 {
        font-family: Montserrat-ExtraBold, Montserrat;
        font-weight: 700;
      }

      .cls-2, .cls-3 {
        font-size: 48px;
      }

      .cls-6 {
        letter-spacing: -.01em;
      }

      .cls-7 {
        letter-spacing: -.01em;
      }

      .cls-8 {
        letter-spacing: .53em;
      }

      .cls-3, .cls-4 {
        font-family: Montserrat-Regular, Montserrat;
      }

      .cls-9 {
        letter-spacing: 0em;
      }

      .cls-10 {
        letter-spacing: -.01em;
      }

      .cls-11 {
        letter-spacing: -.03em;
      }

      .cls-12 {
        letter-spacing: 0em;
      }

      .cls-13 {
        letter-spacing: -.02em;
      }

      .cls-14 {
        letter-spacing: -.04em;
      }

      .cls-15 {
        letter-spacing: 0em;
      }

      .cls-16 {
        letter-spacing: .55em;
      }

      .cls-17 {
        letter-spacing: .53em;
      }

      .cls-18 {
        letter-spacing: 0em;
      }

      .cls-19 {
        letter-spacing: 0em;
      }

      .cls-4 {
        font-size: 30px;
      }

      .cls-20 {
        letter-spacing: .55em;
      }

      .cls-21 {
        letter-spacing: -.04em;
      }

      .cls-22 {
        letter-spacing: -.04em;
      }

      .cls-23 {
        letter-spacing: .52em;
      }
    </style>
  </defs>
  <polygon class="cls-1" points="253.41 160.8 253.41 207.22 114 121.06 114 206.07 67.41 206.07 67.41 45.85 114 74.64 253.41 160.8"/>
  <polygon class="cls-1" points="402.35 49.09 402.35 206.07 360.7 206.07 360.7 121.25 329.54 140.51 291.98 163.72 254.43 140.51 178.82 93.78 178.82 47.36 291.98 117.3 360.7 74.83 402.35 49.09"/>
  <text class="cls-2" transform="translate(472.71 110.31)"><tspan class="cls-12" x="0" y="0">NJIGINA M</tspan><tspan class="cls-18" x="271.53" y="0">A</tspan><tspan class="cls-12" x="308.83" y="0">CHARIA</tspan></text>
  <text class="cls-3" transform="translate(476.07 173.84)"><tspan class="cls-20" x="0" y="0">A</tspan><tspan class="cls-17" x="60.82" y="0">DV</tspan><tspan class="cls-16" x="184.75" y="0">O</tspan><tspan class="cls-8" x="251.42" y="0">C</tspan><tspan class="cls-23" x="310.99" y="0">A</tspan><tspan class="cls-16" x="370.13" y="0">TES</tspan></text>
  <text class="cls-4" transform="translate(67.41 252.96)"><tspan class="cls-9" x="0" y="0">A</tspan><tspan class="cls-11" x="21.39" y="0">DV</tspan><tspan class="cls-15" x="65.61" y="0">O</tspan><tspan class="cls-13" x="90.66" y="0">C</tspan><tspan class="cls-21" x="111.27" y="0">A</tspan><tspan class="cls-9" x="131.61" y="0">TE</tspan><tspan class="cls-5" x="168.66" y="0">S</tspan><tspan class="cls-15" x="187.59" y="0">, </tspan><tspan class="cls-14" x="201.57" y="0">C</tspan><tspan class="cls-9" x="221.67" y="0">OMMISSIONER </tspan><tspan class="cls-7" x="456.89" y="0">F</tspan><tspan class="cls-9" x="475.49" y="0">OR </tspan><tspan class="cls-6" x="529.85" y="0">O</tspan><tspan class="cls-22" x="554.6" y="0">A</tspan><tspan class="cls-9" x="574.94" y="0">THS &amp; N</tspan><tspan class="cls-10" x="694.34" y="0">O</tspan><tspan class="cls-22" x="719.09" y="0">T</tspan><tspan class="cls-9" x="735.14" y="0">A</tspan><tspan class="cls-10" x="756.53" y="0">R</tspan><tspan class="cls-9" x="777.8" y="0">Y </tspan><tspan class="cls-19" x="804.47" y="0">P</tspan><tspan class="cls-9" x="825.74" y="0">UBLIC</tspan></text>
  <rect class="cls-1" x="434.29" y="45.85" width="5.65" height="161.37"/>
</svg>